<?xml version="1.0" standalone="no"?>
<!DOCTYPE svg PUBLIC "-//W3C//DTD SVG 20010904//EN"
 "http://www.w3.org/TR/2001/REC-SVG-20010904/DTD/svg10.dtd">
<svg version="1.0" xmlns="http://www.w3.org/2000/svg"
 width="512.000000pt" height="512.000000pt" viewBox="0 0 512.000000 512.000000"
 preserveAspectRatio="xMidYMid meet">

<g transform="translate(0.000000,512.000000) scale(0.100000,-0.100000)"
fill="#000000" stroke="none">
<path d="M725 4471 c-92 -24 -173 -90 -215 -176 -19 -41 -24 -66 -24 -135 -1
-78 2 -90 33 -148 38 -70 70 -100 145 -140 43 -22 64 -26 136 -26 72 0 93 4
136 26 75 40 107 70 145 140 31 58 34 70 33 148 0 72 -4 93 -26 136 -39 75
-70 107 -137 143 -65 34 -164 49 -226 32z"/>
<path d="M1685 4471 c-90 -22 -173 -90 -215 -176 -34 -69 -35 -198 -2 -265 34
-71 75 -113 144 -151 l63 -34 1365 0 1365 0 63 34 c70 38 101 70 140 145 22
43 26 64 26 136 1 78 -2 90 -33 148 -37 69 -79 109 -151 144 l-45 23 -1345 2
c-740 0 -1358 -2 -1375 -6z"/>
<path d="M725 2871 c-92 -24 -173 -90 -215 -176 -19 -41 -24 -66 -24 -135 -1
-78 2 -90 33 -148 38 -70 70 -100 145 -140 43 -22 64 -26 136 -26 72 0 93 4
136 26 75 40 107 70 145 140 31 58 34 70 33 148 0 72 -4 93 -26 136 -39 75
-70 107 -137 143 -65 34 -164 49 -226 32z"/>
<path d="M1685 2871 c-90 -22 -173 -90 -215 -176 -34 -69 -35 -198 -2 -265 34
-71 75 -113 144 -151 l63 -34 1365 0 1365 0 63 34 c70 38 101 70 140 145 22
43 26 64 26 136 1 78 -2 90 -33 148 -37 69 -79 109 -151 144 l-45 23 -1345 2
c-740 0 -1358 -2 -1375 -6z"/>
<path d="M725 1271 c-92 -24 -173 -90 -215 -176 -19 -41 -24 -66 -24 -135 -1
-78 2 -90 33 -148 38 -70 70 -100 145 -140 43 -22 64 -26 136 -26 72 0 93 4
136 26 75 40 107 70 145 140 31 58 34 70 33 148 0 72 -4 93 -26 136 -39 75
-70 107 -137 143 -65 34 -164 49 -226 32z"/>
<path d="M1685 1271 c-90 -22 -173 -90 -215 -176 -34 -69 -35 -198 -2 -265 34
-71 75 -113 144 -151 l63 -34 1365 0 1365 0 63 34 c70 38 101 70 140 145 22
43 26 64 26 136 1 78 -2 90 -33 148 -37 69 -79 109 -151 144 l-45 23 -1345 2
c-740 0 -1358 -2 -1375 -6z"/>
</g>
</svg>
