<?xml version="1.0" standalone="no"?>
<!DOCTYPE svg PUBLIC "-//W3C//DTD SVG 20010904//EN"
 "http://www.w3.org/TR/2001/REC-SVG-20010904/DTD/svg10.dtd">
<svg version="1.0" xmlns="http://www.w3.org/2000/svg"
 width="512.000000pt" height="512.000000pt" viewBox="0 0 512.000000 512.000000"
 preserveAspectRatio="xMidYMid meet">

<g transform="translate(0.000000,512.000000) scale(0.100000,-0.100000)"
fill="#000000" stroke="none">
<path d="M2440 5115 c-8 -2 -49 -9 -90 -15 -360 -59 -693 -308 -864 -648 -84
-168 -121 -329 -121 -532 0 -157 12 -236 56 -372 97 -300 319 -557 607 -702
85 -43 216 -87 317 -107 103 -21 349 -18 455 5 423 91 768 399 899 804 44 136
56 215 56 372 0 83 -6 175 -14 215 -95 479 -451 849 -921 956 -78 18 -338 35
-380 24z m310 -418 c209 -57 367 -171 481 -345 88 -134 124 -258 124 -432 0
-174 -36 -298 -124 -432 -279 -426 -871 -492 -1230 -137 -161 159 -236 340
-236 569 0 174 36 297 125 434 118 180 303 306 520 352 80 17 262 12 340 -9z"/>
<path d="M2337 2389 c-135 -13 -323 -55 -474 -104 -564 -186 -1037 -605 -1292
-1147 -93 -197 -161 -425 -161 -540 1 -275 206 -527 475 -583 60 -13 303 -15
1681 -15 1572 0 1613 0 1688 20 113 29 190 73 277 160 87 86 140 181 164 295
28 133 15 236 -56 442 -332 963 -1281 1570 -2302 1472z m408 -399 c190 -21
351 -63 521 -135 470 -201 834 -593 998 -1077 51 -149 55 -192 24 -260 -26
-57 -59 -87 -117 -106 -51 -18 -3167 -17 -3225 0 -87 26 -147 126 -132 220 11
69 74 245 128 356 267 549 809 932 1418 1001 107 12 280 12 385 1z"/>
</g>
</svg>
